<?xml version="1.0" encoding="UTF-8"?>
<svg xmlns="http://www.w3.org/2000/svg" xmlns:xlink="http://www.w3.org/1999/xlink" width="375pt" height="374.999991pt" viewBox="0 0 375 374.999991" version="1.2">
<defs>
<clipPath id="clip1">
  <path d="M 5.796875 0 L 369.546875 0 L 369.546875 375 L 5.796875 375 Z M 5.796875 0 "/>
</clipPath>
</defs>
<g id="surface1">
<g clip-path="url(#clip1)" clip-rule="nonzero">
<path style=" stroke:none;fill-rule:nonzero;fill:rgb(36.079407%,88.238525%,90.19928%);fill-opacity:1;" d="M 40.535156 344.871094 C 40.21875 345.191406 39.933594 345.539062 39.683594 345.914062 C 39.429688 346.289062 39.21875 346.683594 39.046875 347.101562 C 38.875 347.519531 38.742188 347.949219 38.65625 348.390625 C 38.566406 348.832031 38.523438 349.277344 38.523438 349.730469 C 38.523438 350.179688 38.566406 350.628906 38.65625 351.070312 C 38.746094 351.511719 38.875 351.941406 39.046875 352.359375 C 39.21875 352.773438 39.433594 353.171875 39.683594 353.546875 C 39.933594 353.921875 40.21875 354.269531 40.539062 354.585938 C 40.855469 354.90625 41.203125 355.191406 41.578125 355.441406 C 41.957031 355.691406 42.351562 355.902344 42.769531 356.074219 C 43.1875 356.25 43.617188 356.378906 44.058594 356.464844 C 44.5 356.554688 44.949219 356.597656 45.398438 356.597656 C 45.851562 356.597656 46.296875 356.554688 46.742188 356.464844 C 47.183594 356.378906 47.613281 356.25 48.03125 356.074219 C 48.449219 355.902344 48.84375 355.691406 49.21875 355.441406 C 49.59375 355.191406 49.941406 354.90625 50.261719 354.585938 C 50.582031 354.269531 50.867188 353.921875 51.117188 353.546875 C 51.367188 353.171875 51.578125 352.773438 51.75 352.359375 C 51.925781 351.941406 52.054688 351.511719 52.144531 351.070312 C 52.230469 350.628906 52.273438 350.179688 52.273438 349.730469 C 52.273438 349.277344 52.230469 348.832031 52.144531 348.390625 C 52.054688 347.949219 51.925781 347.519531 51.753906 347.101562 C 51.578125 346.683594 51.367188 346.289062 51.117188 345.914062 C 50.867188 345.539062 50.582031 345.191406 50.261719 344.871094 C 49.941406 344.554688 49.59375 344.269531 49.21875 344.019531 C 48.84375 343.769531 48.449219 343.558594 48.03125 343.386719 C 47.613281 343.214844 47.183594 343.085938 46.742188 342.996094 C 46.296875 342.910156 45.851562 342.867188 45.398438 342.867188 C 44.949219 342.867188 44.5 342.910156 44.058594 342.996094 C 43.617188 343.085938 43.1875 343.214844 42.769531 343.386719 C 42.351562 343.558594 41.957031 343.769531 41.578125 344.019531 C 41.203125 344.269531 40.855469 344.554688 40.535156 344.871094 Z M 107.488281 172.378906 C 105.269531 172.34375 103.148438 172.78125 101.125 173.683594 L 101.125 170.054688 C 101.125 164.960938 99.566406 158.089844 96.640625 155.257812 C 95.167969 153.921875 93.5 152.90625 91.640625 152.203125 C 89.78125 151.503906 87.855469 151.167969 85.871094 151.195312 C 83.671875 151.164062 81.570312 151.601562 79.570312 152.503906 L 79.570312 150.175781 C 79.625 147.882812 79.234375 145.671875 78.390625 143.535156 C 77.550781 141.402344 76.324219 139.515625 74.71875 137.875 C 73.261719 136.613281 71.636719 135.628906 69.84375 134.925781 C 68.050781 134.21875 66.1875 133.832031 64.261719 133.761719 C 62.335938 133.746094 60.480469 134.089844 58.695312 134.804688 C 56.90625 135.515625 55.320312 136.539062 53.933594 137.875 C 52.332031 139.515625 51.113281 141.40625 50.277344 143.539062 C 49.441406 145.671875 49.050781 147.886719 49.113281 150.175781 L 49.113281 152.566406 C 48.433594 152.246094 47.730469 151.980469 47.011719 151.765625 C 46.292969 151.550781 45.558594 151.390625 44.8125 151.285156 C 44.070312 151.183594 43.320312 151.136719 42.570312 151.144531 C 41.816406 151.152344 41.070312 151.21875 40.328125 151.339844 C 39.585938 151.464844 38.859375 151.640625 38.144531 151.875 C 37.429688 152.105469 36.734375 152.390625 36.0625 152.730469 C 35.390625 153.066406 34.75 153.453125 34.136719 153.886719 C 33.523438 154.324219 32.945312 154.800781 32.40625 155.324219 C 30.800781 156.964844 29.578125 158.855469 28.738281 160.992188 C 27.894531 163.128906 27.503906 165.34375 27.558594 167.636719 L 27.558594 206.578125 C 25.527344 205.679688 23.398438 205.246094 21.179688 205.273438 C 19.253906 205.257812 17.398438 205.605469 15.613281 206.3125 C 13.824219 207.023438 12.238281 208.042969 10.851562 209.375 C 9.25 211.007812 8.023438 212.890625 7.179688 215.015625 C 6.335938 217.140625 5.933594 219.347656 5.976562 221.636719 L 5.976562 254.414062 C 5.976562 275.046875 19.425781 288.054688 30.433594 298.65625 L 30.433594 319.054688 C 29.644531 319.183594 28.871094 319.378906 28.117188 319.640625 C 27.363281 319.90625 26.636719 320.234375 25.941406 320.625 C 25.246094 321.019531 24.589844 321.46875 23.972656 321.976562 C 23.355469 322.484375 22.789062 323.042969 22.269531 323.652344 C 21.753906 324.261719 21.292969 324.910156 20.890625 325.597656 C 20.488281 326.289062 20.148438 327.007812 19.875 327.757812 C 19.597656 328.507812 19.390625 329.277344 19.253906 330.0625 C 19.113281 330.851562 19.046875 331.640625 19.046875 332.441406 L 19.046875 375 L 28.277344 375 L 28.277344 332.441406 C 28.277344 332.15625 28.304688 331.875 28.359375 331.597656 C 28.414062 331.316406 28.496094 331.046875 28.605469 330.785156 C 28.714844 330.523438 28.847656 330.273438 29.003906 330.035156 C 29.164062 329.800781 29.339844 329.582031 29.542969 329.378906 C 29.742188 329.179688 29.960938 329 30.199219 328.839844 C 30.433594 328.683594 30.683594 328.546875 30.945312 328.4375 C 31.207031 328.328125 31.480469 328.246094 31.757812 328.191406 C 32.035156 328.132812 32.316406 328.105469 32.601562 328.105469 L 102.195312 328.105469 C 102.480469 328.105469 102.761719 328.132812 103.042969 328.1875 C 103.320312 328.246094 103.59375 328.328125 103.855469 328.433594 C 104.121094 328.542969 104.371094 328.679688 104.605469 328.835938 C 104.84375 328.996094 105.0625 329.175781 105.265625 329.375 C 105.464844 329.578125 105.644531 329.796875 105.804688 330.03125 C 105.960938 330.269531 106.097656 330.519531 106.203125 330.78125 C 106.3125 331.042969 106.394531 331.316406 106.453125 331.59375 C 106.507812 331.875 106.535156 332.15625 106.535156 332.441406 L 106.535156 375 L 115.777344 375 L 115.777344 332.441406 C 115.777344 331.644531 115.703125 330.855469 115.5625 330.070312 C 115.421875 329.285156 115.214844 328.519531 114.9375 327.773438 C 114.660156 327.027344 114.320312 326.308594 113.917969 325.625 C 113.515625 324.9375 113.054688 324.289062 112.539062 323.683594 C 112.019531 323.078125 111.453125 322.523438 110.835938 322.015625 C 110.222656 321.511719 109.566406 321.0625 108.871094 320.671875 C 108.175781 320.28125 107.453125 319.953125 106.699219 319.691406 C 105.949219 319.429688 105.179688 319.234375 104.390625 319.109375 L 104.390625 298.710938 C 115.410156 288.09375 122.691406 275.074219 122.691406 254.414062 L 122.691406 188.753906 C 122.75 186.460938 122.355469 184.246094 121.515625 182.113281 C 120.671875 179.976562 119.449219 178.089844 117.84375 176.453125 C 116.449219 175.121094 114.859375 174.105469 113.066406 173.398438 C 111.273438 172.695312 109.414062 172.355469 107.488281 172.378906 Z M 113.804688 254.441406 C 113.804688 272.722656 107.605469 282.789062 98.417969 291.644531 L 95.253906 294.832031 L 95.046875 318.871094 L 39.699219 318.871094 L 39.476562 294.832031 L 36.339844 291.65625 C 27.191406 282.804688 14.8125 272.75 14.8125 254.453125 L 14.8125 221.675781 C 14.769531 221.234375 14.777344 220.796875 14.828125 220.359375 C 14.878906 219.917969 14.976562 219.492188 15.117188 219.074219 C 15.257812 218.65625 15.441406 218.257812 15.667969 217.878906 C 15.894531 217.5 16.160156 217.148438 16.457031 216.824219 C 16.757812 216.5 17.089844 216.210938 17.453125 215.957031 C 17.8125 215.703125 18.199219 215.492188 18.605469 215.316406 C 19.011719 215.144531 19.429688 215.015625 19.863281 214.933594 C 20.296875 214.847656 20.734375 214.8125 21.179688 214.820312 C 22.011719 214.808594 22.816406 214.953125 23.59375 215.25 C 24.375 215.542969 25.070312 215.972656 25.6875 216.53125 C 26.371094 217.296875 26.875 218.164062 27.199219 219.136719 C 27.527344 220.113281 27.644531 221.109375 27.558594 222.132812 L 27.558594 253.109375 C 27.550781 253.71875 27.65625 254.304688 27.871094 254.875 C 28.089844 255.445312 28.40625 255.953125 28.816406 256.402344 C 29.226562 256.851562 29.707031 257.210938 30.253906 257.480469 C 30.800781 257.746094 31.378906 257.90625 31.988281 257.953125 C 32.289062 257.929688 32.585938 257.878906 32.878906 257.800781 C 33.171875 257.722656 33.453125 257.617188 33.726562 257.484375 C 34 257.351562 34.253906 257.195312 34.5 257.011719 C 34.742188 256.832031 34.964844 256.632812 35.167969 256.40625 C 35.375 256.183594 35.554688 255.945312 35.714844 255.6875 C 35.875 255.429688 36.007812 255.160156 36.117188 254.878906 C 36.222656 254.597656 36.304688 254.304688 36.359375 254.007812 C 36.410156 253.710938 36.4375 253.410156 36.433594 253.109375 L 36.433594 167.625 C 36.375 167.175781 36.363281 166.726562 36.40625 166.277344 C 36.445312 165.828125 36.53125 165.386719 36.667969 164.957031 C 36.804688 164.527344 36.984375 164.117188 37.210938 163.722656 C 37.4375 163.332031 37.703125 162.972656 38.007812 162.636719 C 38.3125 162.304688 38.648438 162.007812 39.019531 161.746094 C 39.390625 161.488281 39.78125 161.273438 40.199219 161.097656 C 40.617188 160.925781 41.046875 160.796875 41.492188 160.71875 C 41.9375 160.636719 42.386719 160.605469 42.835938 160.625 C 43.660156 160.621094 44.457031 160.769531 45.222656 161.066406 C 45.988281 161.363281 46.675781 161.792969 47.28125 162.347656 C 48.523438 164.023438 49.132812 165.90625 49.113281 167.988281 L 49.113281 220.226562 C 49.105469 220.835938 49.210938 221.425781 49.429688 221.992188 C 49.644531 222.5625 49.960938 223.070312 50.371094 223.519531 C 50.78125 223.972656 51.261719 224.328125 51.808594 224.597656 C 52.359375 224.863281 52.933594 225.023438 53.542969 225.070312 C 54.152344 225.023438 54.730469 224.863281 55.277344 224.597656 C 55.824219 224.328125 56.304688 223.972656 56.714844 223.519531 C 57.125 223.070312 57.441406 222.5625 57.660156 221.992188 C 57.875 221.425781 57.980469 220.835938 57.972656 220.226562 L 57.972656 150.175781 C 57.890625 149.210938 58.011719 148.273438 58.335938 147.359375 C 58.664062 146.449219 59.164062 145.644531 59.84375 144.953125 C 60.457031 144.414062 61.144531 144.003906 61.914062 143.722656 C 62.679688 143.441406 63.472656 143.308594 64.289062 143.320312 C 65.101562 143.304688 65.894531 143.433594 66.660156 143.714844 C 67.425781 144 68.109375 144.410156 68.71875 144.953125 C 69.410156 145.640625 69.925781 146.4375 70.265625 147.351562 C 70.605469 148.265625 70.734375 149.207031 70.652344 150.175781 C 70.652344 175.785156 70.652344 195.28125 70.652344 220.929688 C 70.648438 221.539062 70.753906 222.128906 70.972656 222.699219 C 71.191406 223.269531 71.507812 223.777344 71.921875 224.226562 C 72.332031 224.675781 72.8125 225.035156 73.363281 225.304688 C 73.910156 225.570312 74.488281 225.726562 75.097656 225.777344 C 75.398438 225.753906 75.695312 225.703125 75.988281 225.621094 C 76.28125 225.542969 76.5625 225.4375 76.832031 225.304688 C 77.105469 225.171875 77.363281 225.015625 77.605469 224.835938 C 77.847656 224.65625 78.070312 224.453125 78.273438 224.230469 C 78.476562 224.007812 78.660156 223.765625 78.816406 223.507812 C 78.976562 223.253906 79.109375 222.980469 79.21875 222.699219 C 79.324219 222.417969 79.40625 222.128906 79.457031 221.832031 C 79.507812 221.53125 79.535156 221.234375 79.53125 220.929688 L 79.53125 167.691406 C 79.449219 166.726562 79.574219 165.789062 79.898438 164.875 C 80.226562 163.964844 80.726562 163.160156 81.398438 162.464844 C 81.992188 161.878906 82.679688 161.425781 83.453125 161.105469 C 84.226562 160.785156 85.03125 160.625 85.871094 160.625 C 86.703125 160.613281 87.511719 160.757812 88.289062 161.054688 C 89.070312 161.351562 89.765625 161.785156 90.378906 162.347656 C 91.054688 163.042969 91.554688 163.847656 91.878906 164.757812 C 92.203125 165.667969 92.328125 166.609375 92.25 167.570312 L 92.25 228.636719 C 92.21875 228.945312 92.222656 229.253906 92.257812 229.558594 C 92.292969 229.867188 92.359375 230.167969 92.457031 230.464844 C 92.554688 230.757812 92.683594 231.039062 92.839844 231.304688 C 92.996094 231.574219 93.179688 231.820312 93.390625 232.050781 C 93.597656 232.28125 93.828125 232.484375 94.082031 232.667969 C 94.332031 232.847656 94.601562 233 94.882812 233.125 C 95.167969 233.25 95.460938 233.347656 95.765625 233.410156 C 96.070312 233.472656 96.375 233.503906 96.6875 233.507812 C 96.996094 233.503906 97.304688 233.472656 97.605469 233.410156 C 97.910156 233.347656 98.203125 233.25 98.488281 233.125 C 98.773438 233 99.039062 232.847656 99.292969 232.667969 C 99.542969 232.484375 99.773438 232.28125 99.980469 232.050781 C 100.191406 231.820312 100.375 231.574219 100.53125 231.304688 C 100.6875 231.039062 100.816406 230.757812 100.914062 230.464844 C 101.011719 230.167969 101.078125 229.867188 101.113281 229.558594 C 101.148438 229.253906 101.152344 228.945312 101.125 228.636719 L 101.125 189.277344 C 101.007812 188.234375 101.121094 187.21875 101.457031 186.226562 C 101.796875 185.234375 102.332031 184.363281 103.058594 183.609375 C 103.359375 183.335938 103.683594 183.09375 104.027344 182.878906 C 104.375 182.664062 104.738281 182.484375 105.117188 182.339844 C 105.496094 182.191406 105.886719 182.082031 106.285156 182.007812 C 106.6875 181.933594 107.089844 181.894531 107.496094 181.894531 C 107.902344 181.894531 108.304688 181.933594 108.707031 182.007812 C 109.105469 182.082031 109.496094 182.191406 109.875 182.339844 C 110.253906 182.484375 110.617188 182.664062 110.964844 182.878906 C 111.308594 183.09375 111.632812 183.335938 111.933594 183.609375 C 112.613281 184.285156 113.117188 185.074219 113.441406 185.972656 C 113.769531 186.871094 113.890625 187.800781 113.804688 188.753906 Z M 287.238281 298.632812 C 286.917969 298.949219 286.632812 299.296875 286.382812 299.671875 C 286.128906 300.046875 285.917969 300.441406 285.746094 300.859375 C 285.574219 301.277344 285.445312 301.707031 285.355469 302.148438 C 285.265625 302.589844 285.222656 303.039062 285.222656 303.488281 C 285.222656 303.9375 285.265625 304.386719 285.355469 304.828125 C 285.445312 305.269531 285.574219 305.699219 285.746094 306.117188 C 285.917969 306.535156 286.132812 306.929688 286.382812 307.304688 C 286.632812 307.679688 286.917969 308.027344 287.238281 308.34375 C 287.558594 308.664062 287.902344 308.949219 288.28125 309.199219 C 288.65625 309.449219 289.050781 309.660156 289.46875 309.832031 C 289.886719 310.007812 290.316406 310.136719 290.757812 310.226562 C 291.199219 310.3125 291.648438 310.355469 292.097656 310.355469 C 292.550781 310.355469 292.996094 310.3125 293.441406 310.226562 C 293.882812 310.136719 294.3125 310.007812 294.730469 309.832031 C 295.148438 309.660156 295.542969 309.449219 295.917969 309.199219 C 296.292969 308.949219 296.640625 308.664062 296.960938 308.34375 C 297.28125 308.027344 297.566406 307.679688 297.816406 307.304688 C 298.066406 306.929688 298.277344 306.535156 298.449219 306.117188 C 298.625 305.699219 298.753906 305.269531 298.84375 304.828125 C 298.929688 304.386719 298.976562 303.9375 298.976562 303.488281 C 298.976562 303.039062 298.929688 302.589844 298.84375 302.148438 C 298.753906 301.707031 298.625 301.277344 298.453125 300.859375 C 298.277344 300.441406 298.066406 300.046875 297.816406 299.671875 C 297.566406 299.296875 297.28125 298.949219 296.960938 298.632812 C 296.644531 298.3125 296.296875 298.023438 295.921875 297.773438 C 295.546875 297.519531 295.152344 297.304688 294.734375 297.132812 C 294.320312 296.957031 293.890625 296.824219 293.445312 296.734375 C 293.003906 296.648438 292.554688 296.601562 292.105469 296.601562 C 291.652344 296.597656 291.207031 296.640625 290.761719 296.730469 C 290.320312 296.816406 289.886719 296.945312 289.46875 297.117188 C 289.050781 297.289062 288.65625 297.5 288.28125 297.75 C 287.902344 298 287.554688 298.285156 287.238281 298.605469 Z M 369.363281 142.484375 C 369.417969 140.191406 369.023438 137.976562 368.183594 135.839844 C 367.339844 133.703125 366.117188 131.816406 364.515625 130.171875 C 363.128906 128.839844 361.542969 127.820312 359.753906 127.109375 C 357.96875 126.402344 356.113281 126.054688 354.1875 126.070312 C 351.964844 126.039062 349.839844 126.472656 347.808594 127.375 L 347.808594 123.785156 C 347.808594 118.691406 346.269531 111.824219 343.328125 108.988281 C 341.855469 107.65625 340.191406 106.640625 338.332031 105.9375 C 336.476562 105.238281 334.554688 104.902344 332.570312 104.929688 C 330.371094 104.902344 328.273438 105.335938 326.269531 106.234375 L 326.269531 103.882812 C 326.324219 101.589844 325.929688 99.375 325.085938 97.242188 C 324.242188 95.105469 323.015625 93.21875 321.40625 91.582031 C 319.957031 90.328125 318.34375 89.351562 316.558594 88.648438 C 314.777344 87.949219 312.929688 87.5625 311.011719 87.496094 C 309.089844 87.480469 307.234375 87.824219 305.449219 88.535156 C 303.660156 89.246094 302.074219 90.265625 300.6875 91.59375 C 299.082031 93.238281 297.863281 95.125 297.019531 97.257812 C 296.179688 99.390625 295.785156 101.605469 295.835938 103.898438 L 295.835938 106.285156 C 295.160156 105.96875 294.460938 105.703125 293.742188 105.492188 C 293.023438 105.28125 292.292969 105.125 291.550781 105.019531 C 290.808594 104.917969 290.0625 104.871094 289.3125 104.882812 C 288.5625 104.890625 287.820312 104.957031 287.078125 105.078125 C 286.339844 105.199219 285.613281 105.378906 284.902344 105.609375 C 284.1875 105.839844 283.496094 106.121094 282.824219 106.457031 C 282.15625 106.792969 281.515625 107.175781 280.902344 107.605469 C 280.289062 108.035156 279.710938 108.511719 279.171875 109.027344 C 277.5625 110.667969 276.335938 112.558594 275.496094 114.695312 C 274.65625 116.832031 274.261719 119.046875 274.320312 121.34375 L 274.320312 160.296875 C 272.292969 159.394531 270.164062 158.960938 267.941406 158.992188 C 266.019531 158.976562 264.164062 159.320312 262.378906 160.03125 C 260.589844 160.742188 259.003906 161.761719 257.617188 163.09375 C 255.996094 164.730469 254.761719 166.617188 253.90625 168.753906 C 253.050781 170.886719 252.644531 173.105469 252.6875 175.40625 L 252.6875 208.171875 C 252.6875 228.804688 266.152344 241.8125 277.160156 252.414062 L 277.160156 272.8125 C 276.371094 272.945312 275.605469 273.140625 274.855469 273.40625 C 274.105469 273.667969 273.382812 273.996094 272.6875 274.386719 C 271.996094 274.78125 271.34375 275.230469 270.730469 275.734375 C 270.117188 276.242188 269.550781 276.796875 269.035156 277.402344 C 268.519531 278.007812 268.058594 278.652344 267.65625 279.339844 C 267.253906 280.027344 266.917969 280.742188 266.640625 281.488281 C 266.363281 282.234375 266.15625 283 266.015625 283.78125 C 265.875 284.5625 265.800781 285.351562 265.800781 286.148438 L 265.800781 374.949219 L 275.027344 374.949219 L 275.027344 286.148438 C 275.027344 285.863281 275.054688 285.582031 275.109375 285.300781 C 275.167969 285.023438 275.25 284.75 275.359375 284.488281 C 275.46875 284.226562 275.601562 283.976562 275.757812 283.738281 C 275.917969 283.5 276.097656 283.28125 276.296875 283.082031 C 276.5 282.878906 276.71875 282.699219 276.957031 282.542969 C 277.191406 282.382812 277.445312 282.25 277.707031 282.140625 C 277.96875 282.03125 278.242188 281.949219 278.519531 281.894531 C 278.800781 281.839844 279.082031 281.8125 279.367188 281.8125 L 348.945312 281.8125 C 349.230469 281.8125 349.515625 281.839844 349.792969 281.894531 C 350.074219 281.949219 350.34375 282.03125 350.609375 282.140625 C 350.871094 282.25 351.121094 282.382812 351.359375 282.542969 C 351.59375 282.699219 351.8125 282.878906 352.015625 283.082031 C 352.21875 283.28125 352.398438 283.5 352.554688 283.738281 C 352.714844 283.976562 352.847656 284.226562 352.957031 284.488281 C 353.066406 284.75 353.148438 285.023438 353.203125 285.300781 C 353.257812 285.582031 353.285156 285.863281 353.285156 286.148438 L 353.285156 374.949219 L 362.515625 374.949219 L 362.515625 286.148438 C 362.511719 285.351562 362.441406 284.5625 362.300781 283.777344 C 362.160156 282.996094 361.949219 282.230469 361.675781 281.484375 C 361.398438 280.738281 361.058594 280.019531 360.65625 279.335938 C 360.253906 278.648438 359.792969 278 359.277344 277.394531 C 358.761719 276.789062 358.195312 276.234375 357.582031 275.726562 C 356.964844 275.222656 356.3125 274.773438 355.617188 274.382812 C 354.925781 273.992188 354.203125 273.664062 353.449219 273.402344 C 352.699219 273.136719 351.929688 272.941406 351.144531 272.8125 L 351.144531 252.429688 C 362.148438 241.8125 369.445312 228.792969 369.445312 208.132812 Z M 360.488281 208.132812 C 360.488281 226.414062 354.304688 236.484375 345.117188 245.351562 L 341.953125 248.539062 L 341.746094 272.566406 L 286.386719 272.566406 L 286.175781 248.539062 L 283.09375 245.402344 C 273.941406 236.535156 261.550781 226.480469 261.550781 208.183594 L 261.550781 175.367188 C 261.507812 174.929688 261.515625 174.488281 261.566406 174.050781 C 261.617188 173.609375 261.714844 173.179688 261.855469 172.761719 C 262 172.34375 262.183594 171.945312 262.410156 171.5625 C 262.636719 171.183594 262.898438 170.832031 263.203125 170.507812 C 263.503906 170.183594 263.835938 169.894531 264.195312 169.640625 C 264.558594 169.386719 264.945312 169.171875 265.351562 169 C 265.757812 168.824219 266.179688 168.695312 266.613281 168.613281 C 267.046875 168.527344 267.488281 168.492188 267.929688 168.5 C 268.761719 168.492188 269.5625 168.636719 270.339844 168.933594 C 271.113281 169.226562 271.8125 169.652344 272.425781 170.210938 C 273.113281 170.972656 273.621094 171.84375 273.949219 172.816406 C 274.277344 173.789062 274.394531 174.789062 274.308594 175.8125 L 274.308594 206.800781 C 274.285156 207.105469 274.292969 207.410156 274.332031 207.714844 C 274.371094 208.015625 274.441406 208.3125 274.542969 208.601562 C 274.644531 208.890625 274.773438 209.167969 274.929688 209.429688 C 275.089844 209.691406 275.269531 209.933594 275.480469 210.160156 C 275.6875 210.382812 275.914062 210.582031 276.164062 210.761719 C 276.414062 210.9375 276.679688 211.085938 276.960938 211.210938 C 277.242188 211.332031 277.53125 211.425781 277.832031 211.488281 C 278.128906 211.550781 278.433594 211.582031 278.738281 211.582031 C 279.046875 211.582031 279.347656 211.550781 279.648438 211.488281 C 279.949219 211.425781 280.238281 211.332031 280.519531 211.210938 C 280.800781 211.085938 281.066406 210.9375 281.3125 210.761719 C 281.5625 210.582031 281.792969 210.382812 282 210.160156 C 282.207031 209.933594 282.390625 209.691406 282.550781 209.429688 C 282.707031 209.167969 282.835938 208.890625 282.9375 208.601562 C 283.039062 208.3125 283.109375 208.015625 283.148438 207.714844 C 283.1875 207.410156 283.195312 207.105469 283.171875 206.800781 L 283.171875 121.34375 C 283.117188 120.898438 283.109375 120.453125 283.152344 120.007812 C 283.195312 119.5625 283.285156 119.125 283.421875 118.699219 C 283.558594 118.273438 283.742188 117.867188 283.96875 117.480469 C 284.191406 117.09375 284.457031 116.734375 284.757812 116.40625 C 285.0625 116.078125 285.398438 115.785156 285.765625 115.527344 C 286.132812 115.269531 286.523438 115.054688 286.933594 114.882812 C 287.347656 114.710938 287.777344 114.582031 288.21875 114.503906 C 288.65625 114.425781 289.101562 114.394531 289.550781 114.410156 C 290.371094 114.402344 291.164062 114.546875 291.929688 114.839844 C 292.695312 115.136719 293.378906 115.5625 293.980469 116.121094 C 295.234375 117.777344 295.855469 119.644531 295.851562 121.722656 L 295.851562 173.957031 C 295.820312 174.265625 295.824219 174.574219 295.859375 174.882812 C 295.894531 175.191406 295.960938 175.492188 296.0625 175.785156 C 296.160156 176.078125 296.285156 176.359375 296.445312 176.628906 C 296.601562 176.894531 296.785156 177.144531 296.992188 177.371094 C 297.199219 177.601562 297.429688 177.808594 297.683594 177.988281 C 297.933594 178.167969 298.203125 178.324219 298.488281 178.449219 C 298.769531 178.574219 299.0625 178.667969 299.367188 178.730469 C 299.671875 178.796875 299.976562 178.828125 300.289062 178.828125 C 300.597656 178.828125 300.90625 178.796875 301.210938 178.730469 C 301.511719 178.667969 301.804688 178.574219 302.089844 178.449219 C 302.375 178.324219 302.640625 178.167969 302.894531 177.988281 C 303.144531 177.808594 303.375 177.601562 303.585938 177.371094 C 303.792969 177.144531 303.976562 176.894531 304.132812 176.628906 C 304.289062 176.359375 304.417969 176.078125 304.515625 175.785156 C 304.613281 175.492188 304.679688 175.191406 304.714844 174.882812 C 304.753906 174.574219 304.753906 174.265625 304.726562 173.957031 L 304.726562 103.882812 C 304.632812 102.917969 304.75 101.976562 305.078125 101.0625 C 305.40625 100.148438 305.910156 99.347656 306.59375 98.660156 C 307.203125 98.117188 307.890625 97.703125 308.65625 97.421875 C 309.421875 97.140625 310.210938 97.007812 311.027344 97.027344 C 311.84375 97.011719 312.636719 97.144531 313.402344 97.429688 C 314.167969 97.710938 314.859375 98.121094 315.472656 98.660156 C 316.160156 99.347656 316.675781 100.148438 317.011719 101.058594 C 317.351562 101.972656 317.480469 102.914062 317.40625 103.882812 C 317.40625 129.492188 317.40625 148.988281 317.40625 174.648438 C 317.375 174.957031 317.378906 175.265625 317.414062 175.574219 C 317.449219 175.882812 317.515625 176.183594 317.617188 176.476562 C 317.714844 176.773438 317.839844 177.050781 318 177.320312 C 318.15625 177.585938 318.339844 177.835938 318.546875 178.066406 C 318.757812 178.292969 318.988281 178.5 319.238281 178.679688 C 319.488281 178.863281 319.757812 179.015625 320.042969 179.140625 C 320.324219 179.265625 320.617188 179.359375 320.921875 179.425781 C 321.226562 179.488281 321.53125 179.519531 321.84375 179.519531 C 322.152344 179.519531 322.460938 179.488281 322.765625 179.425781 C 323.066406 179.359375 323.363281 179.265625 323.644531 179.140625 C 323.929688 179.015625 324.195312 178.863281 324.449219 178.679688 C 324.699219 178.5 324.929688 178.292969 325.140625 178.066406 C 325.347656 177.835938 325.53125 177.585938 325.6875 177.320312 C 325.84375 177.050781 325.972656 176.773438 326.070312 176.476562 C 326.167969 176.183594 326.234375 175.882812 326.273438 175.574219 C 326.308594 175.265625 326.308594 174.957031 326.28125 174.648438 L 326.28125 121.449219 C 326.1875 120.46875 326.304688 119.519531 326.632812 118.589844 C 326.957031 117.664062 327.464844 116.847656 328.148438 116.144531 C 328.75 115.585938 329.433594 115.160156 330.203125 114.863281 C 330.96875 114.570312 331.761719 114.425781 332.582031 114.433594 C 333.414062 114.425781 334.21875 114.570312 334.996094 114.867188 C 335.777344 115.160156 336.472656 115.589844 337.089844 116.144531 C 337.773438 116.851562 338.273438 117.667969 338.597656 118.59375 C 338.921875 119.519531 339.039062 120.472656 338.949219 121.449219 L 338.949219 182.5 C 338.925781 182.804688 338.933594 183.109375 338.972656 183.410156 C 339.011719 183.714844 339.082031 184.011719 339.183594 184.300781 C 339.28125 184.589844 339.410156 184.863281 339.570312 185.125 C 339.726562 185.386719 339.910156 185.632812 340.117188 185.855469 C 340.324219 186.078125 340.554688 186.28125 340.804688 186.457031 C 341.054688 186.636719 341.320312 186.785156 341.597656 186.90625 C 341.878906 187.03125 342.171875 187.121094 342.46875 187.183594 C 342.769531 187.246094 343.074219 187.277344 343.378906 187.277344 C 343.683594 187.277344 343.988281 187.246094 344.289062 187.183594 C 344.585938 187.121094 344.878906 187.03125 345.15625 186.90625 C 345.4375 186.785156 345.703125 186.636719 345.953125 186.457031 C 346.203125 186.28125 346.429688 186.078125 346.640625 185.855469 C 346.847656 185.632812 347.03125 185.386719 347.1875 185.125 C 347.347656 184.863281 347.476562 184.589844 347.574219 184.300781 C 347.675781 184.011719 347.746094 183.714844 347.785156 183.410156 C 347.824219 183.109375 347.832031 182.804688 347.808594 182.5 L 347.808594 143.007812 C 347.808594 140.789062 347.980469 139.089844 349.757812 137.339844 C 350.222656 136.882812 350.742188 136.507812 351.324219 136.214844 C 351.902344 135.917969 352.515625 135.71875 353.15625 135.609375 C 353.796875 135.503906 354.441406 135.496094 355.085938 135.589844 C 355.730469 135.679688 356.347656 135.867188 356.933594 136.148438 C 357.519531 136.429688 358.050781 136.792969 358.523438 137.238281 C 359 137.679688 359.394531 138.1875 359.714844 138.753906 C 360.03125 139.320312 360.257812 139.925781 360.390625 140.5625 C 360.523438 141.195312 360.554688 141.839844 360.488281 142.484375 Z M 161.867188 188.542969 C 161.546875 188.863281 161.261719 189.210938 161.011719 189.585938 C 160.761719 189.960938 160.550781 190.355469 160.378906 190.773438 C 160.203125 191.191406 160.074219 191.621094 159.984375 192.0625 C 159.898438 192.503906 159.855469 192.949219 159.855469 193.402344 C 159.855469 193.851562 159.898438 194.300781 159.988281 194.742188 C 160.074219 195.183594 160.203125 195.613281 160.378906 196.03125 C 160.550781 196.445312 160.761719 196.84375 161.011719 197.21875 C 161.265625 197.59375 161.550781 197.941406 161.867188 198.257812 C 162.1875 198.578125 162.535156 198.863281 162.910156 199.113281 C 163.285156 199.363281 163.683594 199.574219 164.097656 199.746094 C 164.515625 199.917969 164.945312 200.050781 165.386719 200.136719 C 165.832031 200.226562 166.277344 200.269531 166.730469 200.269531 C 167.179688 200.269531 167.628906 200.226562 168.070312 200.136719 C 168.515625 200.050781 168.945312 199.917969 169.359375 199.746094 C 169.777344 199.574219 170.175781 199.363281 170.550781 199.113281 C 170.925781 198.863281 171.273438 198.578125 171.589844 198.257812 C 171.910156 197.941406 172.195312 197.59375 172.445312 197.21875 C 172.695312 196.84375 172.910156 196.445312 173.082031 196.03125 C 173.253906 195.613281 173.386719 195.183594 173.472656 194.742188 C 173.5625 194.300781 173.605469 193.851562 173.605469 193.402344 C 173.605469 192.949219 173.5625 192.503906 173.472656 192.0625 C 173.386719 191.621094 173.253906 191.191406 173.082031 190.773438 C 172.910156 190.355469 172.699219 189.960938 172.449219 189.585938 C 172.195312 189.210938 171.910156 188.863281 171.59375 188.542969 C 171.273438 188.226562 170.925781 187.941406 170.550781 187.691406 C 170.175781 187.4375 169.78125 187.226562 169.363281 187.054688 C 168.949219 186.878906 168.519531 186.75 168.074219 186.660156 C 167.632812 186.570312 167.1875 186.527344 166.734375 186.523438 C 166.285156 186.523438 165.835938 186.566406 165.394531 186.652344 C 164.949219 186.738281 164.519531 186.867188 164.101562 187.039062 C 163.683594 187.210938 163.289062 187.421875 162.914062 187.667969 C 162.535156 187.917969 162.1875 188.203125 161.867188 188.519531 Z M 336.398438 74.277344 L 363.640625 57.65625 C 364.125 57.375 364.527344 57.003906 364.855469 56.550781 C 365.179688 56.09375 365.398438 55.59375 365.507812 55.042969 C 365.605469 54.515625 365.585938 53.996094 365.449219 53.480469 C 365.3125 52.960938 365.070312 52.5 364.722656 52.09375 C 364.417969 51.710938 364.054688 51.394531 363.640625 51.140625 L 336.425781 34.554688 C 335.550781 34.019531 334.621094 33.847656 330.804688 33.863281 L 243.523438 33.863281 C 242.878906 30.722656 241.421875 28.011719 239.160156 25.738281 C 237.769531 24.410156 236.183594 23.390625 234.398438 22.679688 C 232.609375 21.972656 230.753906 21.625 228.832031 21.636719 C 226.609375 21.605469 224.484375 22.039062 222.453125 22.945312 L 222.453125 24.96875 C 222.453125 19.875 220.898438 15.828125 217.96875 12.992188 C 216.503906 11.675781 214.847656 10.667969 213.003906 9.976562 C 211.15625 9.28125 209.25 8.945312 207.277344 8.972656 C 205.078125 8.945312 202.972656 9.378906 200.964844 10.277344 C 199.613281 8 197.996094 5.925781 196.113281 4.0625 C 194.65625 2.808594 193.027344 1.832031 191.234375 1.136719 C 189.441406 0.441406 187.582031 0.0625 185.65625 0 C 183.734375 -0.015625 181.878906 0.328125 180.09375 1.039062 C 178.304688 1.75 176.71875 2.769531 175.332031 4.101562 C 173.449219 5.964844 171.832031 8.039062 170.480469 10.316406 C 169.800781 9.996094 169.101562 9.730469 168.382812 9.515625 C 167.660156 9.304688 166.929688 9.144531 166.183594 9.039062 C 165.441406 8.9375 164.691406 8.890625 163.941406 8.898438 C 163.191406 8.910156 162.445312 8.972656 161.703125 9.097656 C 160.960938 9.21875 160.234375 9.394531 159.519531 9.625 C 158.804688 9.855469 158.109375 10.140625 157.4375 10.476562 C 156.765625 10.8125 156.125 11.195312 155.507812 11.628906 C 154.894531 12.0625 154.316406 12.539062 153.777344 13.058594 C 152.171875 14.699219 150.949219 16.585938 150.109375 18.722656 C 149.269531 20.855469 148.875 23.066406 148.925781 25.359375 L 148.925781 33.824219 L 43.597656 33.824219 C 33.910156 33.824219 23.074219 42.625 23.074219 54.390625 C 23.085938 55.785156 23.25 57.160156 23.5625 58.515625 C 23.878906 59.875 24.332031 61.179688 24.933594 62.4375 C 25.53125 63.699219 26.257812 64.875 27.109375 65.976562 C 27.964844 67.078125 28.929688 68.074219 30 68.964844 C 34.484375 72.882812 40.355469 74.957031 43.597656 74.957031 L 127.253906 74.957031 L 127.253906 98.058594 C 127.253906 118.679688 140.703125 131.6875 151.722656 142.304688 L 151.722656 162.699219 C 150.9375 162.828125 150.171875 163.027344 149.421875 163.289062 C 148.671875 163.554688 147.949219 163.882812 147.257812 164.273438 C 146.566406 164.664062 145.914062 165.109375 145.300781 165.617188 C 144.6875 166.121094 144.121094 166.679688 143.605469 167.28125 C 143.089844 167.886719 142.632812 168.535156 142.230469 169.21875 C 141.828125 169.90625 141.492188 170.621094 141.214844 171.367188 C 140.941406 172.109375 140.730469 172.875 140.589844 173.65625 C 140.449219 174.4375 140.378906 175.226562 140.378906 176.019531 L 140.378906 375 L 149.605469 375 L 149.605469 176.074219 C 149.605469 175.789062 149.632812 175.507812 149.6875 175.230469 C 149.746094 174.953125 149.828125 174.679688 149.933594 174.417969 C 150.042969 174.15625 150.175781 173.90625 150.335938 173.671875 C 150.492188 173.4375 150.671875 173.21875 150.875 173.015625 C 151.074219 172.816406 151.292969 172.636719 151.527344 172.480469 C 151.765625 172.320312 152.015625 172.1875 152.277344 172.078125 C 152.539062 171.972656 152.808594 171.890625 153.089844 171.835938 C 153.367188 171.777344 153.648438 171.75 153.933594 171.75 L 223.527344 171.75 C 223.808594 171.75 224.089844 171.777344 224.371094 171.832031 C 224.648438 171.890625 224.921875 171.972656 225.183594 172.078125 C 225.445312 172.1875 225.695312 172.320312 225.933594 172.480469 C 226.167969 172.636719 226.386719 172.816406 226.589844 173.015625 C 226.792969 173.214844 226.972656 173.433594 227.128906 173.671875 C 227.289062 173.90625 227.421875 174.15625 227.53125 174.417969 C 227.640625 174.679688 227.722656 174.949219 227.78125 175.230469 C 227.835938 175.507812 227.863281 175.789062 227.867188 176.074219 L 227.867188 375 L 237.09375 375 L 237.09375 176.074219 C 237.09375 175.277344 237.019531 174.488281 236.878906 173.703125 C 236.738281 172.921875 236.53125 172.15625 236.253906 171.410156 C 235.976562 170.664062 235.636719 169.945312 235.234375 169.257812 C 234.832031 168.574219 234.371094 167.925781 233.851562 167.320312 C 233.335938 166.714844 232.769531 166.160156 232.152344 165.65625 C 231.539062 165.148438 230.882812 164.703125 230.1875 164.3125 C 229.492188 163.921875 228.769531 163.597656 228.015625 163.335938 C 227.265625 163.074219 226.496094 162.878906 225.707031 162.753906 L 225.707031 142.34375 C 236.726562 131.726562 244.007812 118.71875 244.007812 98.058594 L 244.007812 74.996094 L 330.804688 74.996094 C 334.660156 74.984375 335.550781 74.816406 336.398438 74.277344 Z M 55.230469 67.058594 L 46.667969 67.058594 C 44.757812 67.085938 42.902344 66.78125 41.101562 66.140625 C 39.300781 65.5 37.671875 64.566406 36.210938 63.335938 C 34.839844 62.246094 33.75 60.921875 32.953125 59.363281 C 32.152344 57.804688 31.707031 56.152344 31.621094 54.402344 C 31.621094 47.3125 38.417969 41.761719 46.628906 41.761719 L 55.175781 41.761719 Z M 75.175781 67.058594 L 64.195312 67.058594 L 64.195312 41.789062 L 75.175781 41.789062 Z M 84.15625 67.058594 L 84.15625 41.789062 L 148.925781 41.789062 L 148.925781 67.070312 Z M 235.132812 98.035156 C 235.132812 116.316406 228.949219 126.382812 219.746094 135.238281 L 216.585938 138.425781 L 216.429688 162.53125 L 161.03125 162.53125 L 160.820312 138.488281 L 157.671875 135.316406 C 148.519531 126.460938 136.140625 116.394531 136.140625 98.113281 L 136.140625 74.984375 L 148.886719 74.984375 L 148.886719 88.238281 C 148.859375 88.546875 148.859375 88.855469 148.898438 89.164062 C 148.933594 89.472656 149 89.773438 149.097656 90.066406 C 149.195312 90.359375 149.324219 90.640625 149.480469 90.910156 C 149.636719 91.175781 149.820312 91.425781 150.027344 91.652344 C 150.238281 91.882812 150.46875 92.089844 150.71875 92.269531 C 150.972656 92.449219 151.238281 92.605469 151.523438 92.730469 C 151.808594 92.855469 152.101562 92.949219 152.402344 93.011719 C 152.707031 93.078125 153.015625 93.109375 153.324219 93.109375 C 153.636719 93.109375 153.941406 93.078125 154.246094 93.011719 C 154.550781 92.949219 154.84375 92.855469 155.125 92.730469 C 155.410156 92.605469 155.679688 92.449219 155.929688 92.269531 C 156.183594 92.089844 156.414062 91.882812 156.621094 91.652344 C 156.828125 91.425781 157.011719 91.175781 157.167969 90.910156 C 157.328125 90.640625 157.453125 90.359375 157.554688 90.066406 C 157.652344 89.773438 157.71875 89.472656 157.753906 89.164062 C 157.789062 88.855469 157.792969 88.546875 157.761719 88.238281 L 157.761719 25.386719 C 157.671875 24.421875 157.789062 23.480469 158.113281 22.566406 C 158.441406 21.652344 158.949219 20.851562 159.632812 20.164062 C 160.25 19.605469 160.949219 19.183594 161.726562 18.886719 C 162.503906 18.589844 163.308594 18.445312 164.140625 18.453125 C 164.964844 18.449219 165.757812 18.59375 166.523438 18.890625 C 167.292969 19.183594 167.980469 19.609375 168.585938 20.164062 C 169.832031 21.824219 170.457031 23.691406 170.457031 25.765625 L 170.457031 55.34375 C 170.449219 55.953125 170.554688 56.542969 170.769531 57.109375 C 170.988281 57.679688 171.304688 58.191406 171.714844 58.640625 C 172.125 59.089844 172.605469 59.449219 173.152344 59.714844 C 173.699219 59.984375 174.277344 60.140625 174.886719 60.1875 C 175.5 60.179688 176.082031 60.03125 176.625 59.746094 C 177.039062 59.539062 177.414062 59.28125 177.753906 58.96875 C 178.097656 58.65625 178.390625 58.304688 178.632812 57.914062 C 178.875 57.523438 179.0625 57.105469 179.1875 56.660156 C 179.316406 56.21875 179.382812 55.765625 179.382812 55.304688 L 179.382812 52.941406 L 179.316406 52.941406 L 179.316406 47.429688 L 179.382812 47.429688 L 179.382812 33.847656 L 179.316406 33.847656 L 179.316406 16.414062 C 179.226562 15.449219 179.347656 14.507812 179.675781 13.59375 C 180.003906 12.679688 180.511719 11.878906 181.199219 11.191406 C 181.804688 10.644531 182.492188 10.226562 183.257812 9.941406 C 184.023438 9.65625 184.8125 9.523438 185.632812 9.546875 C 186.449219 9.523438 187.238281 9.65625 188.003906 9.941406 C 188.773438 10.226562 189.457031 10.644531 190.0625 11.191406 C 190.761719 11.871094 191.28125 12.671875 191.621094 13.585938 C 191.964844 14.5 192.09375 15.441406 192.011719 16.414062 C 192.011719 42.011719 192.011719 30.425781 192.011719 56.089844 C 192.003906 56.695312 192.109375 57.285156 192.324219 57.855469 C 192.542969 58.425781 192.859375 58.933594 193.269531 59.382812 C 193.679688 59.832031 194.160156 60.191406 194.707031 60.460938 C 195.253906 60.726562 195.832031 60.886719 196.441406 60.933594 C 197.433594 60.917969 198.304688 60.585938 199.054688 59.941406 C 199.191406 59.832031 199.324219 59.710938 199.449219 59.585938 C 199.507812 59.535156 199.566406 59.476562 199.617188 59.417969 C 200.496094 58.464844 200.929688 57.34375 200.925781 56.050781 L 200.925781 25.464844 C 200.835938 24.488281 200.953125 23.535156 201.28125 22.609375 C 201.605469 21.683594 202.113281 20.867188 202.792969 20.164062 C 203.398438 19.605469 204.085938 19.179688 204.851562 18.882812 C 205.621094 18.585938 206.414062 18.445312 207.238281 18.453125 C 208.070312 18.441406 208.875 18.582031 209.648438 18.878906 C 210.425781 19.175781 211.121094 19.601562 211.734375 20.164062 C 212.417969 20.867188 212.921875 21.683594 213.25 22.609375 C 213.574219 23.535156 213.695312 24.488281 213.605469 25.464844 L 213.605469 63.988281 C 213.574219 64.296875 213.578125 64.605469 213.613281 64.914062 C 213.648438 65.222656 213.714844 65.523438 213.8125 65.816406 C 213.914062 66.109375 214.039062 66.390625 214.195312 66.660156 C 214.355469 66.925781 214.535156 67.175781 214.746094 67.402344 C 214.953125 67.632812 215.183594 67.839844 215.4375 68.019531 C 215.6875 68.199219 215.957031 68.355469 216.242188 68.480469 C 216.523438 68.605469 216.816406 68.699219 217.121094 68.761719 C 217.425781 68.828125 217.730469 68.859375 218.042969 68.859375 C 218.351562 68.859375 218.660156 68.828125 218.964844 68.761719 C 219.265625 68.699219 219.558594 68.605469 219.84375 68.480469 C 220.128906 68.355469 220.394531 68.199219 220.648438 68.019531 C 220.898438 67.839844 221.128906 67.632812 221.339844 67.402344 C 221.546875 67.175781 221.730469 66.925781 221.886719 66.660156 C 222.042969 66.390625 222.171875 66.109375 222.269531 65.816406 C 222.367188 65.523438 222.433594 65.222656 222.46875 64.914062 C 222.507812 64.605469 222.507812 64.296875 222.480469 63.988281 L 222.480469 44.191406 C 222.480469 42.375 222.648438 35.3125 223.65625 33.847656 C 223.867188 33.511719 224.113281 33.195312 224.386719 32.910156 C 224.6875 32.632812 225.011719 32.386719 225.355469 32.167969 C 225.699219 31.953125 226.0625 31.769531 226.441406 31.621094 C 226.824219 31.472656 227.214844 31.363281 227.613281 31.285156 C 228.015625 31.210938 228.417969 31.171875 228.828125 31.171875 C 229.234375 31.171875 229.636719 31.210938 230.039062 31.285156 C 230.4375 31.363281 230.828125 31.472656 231.210938 31.621094 C 231.589844 31.769531 231.953125 31.953125 232.296875 32.167969 C 232.640625 32.386719 232.964844 32.632812 233.265625 32.910156 C 233.945312 33.582031 234.449219 34.371094 234.777344 35.269531 C 235.105469 36.171875 235.222656 37.097656 235.132812 38.054688 Z M 321 65.386719 L 322.804688 66.953125 L 244.007812 66.953125 L 244.007812 41.789062 L 322.804688 41.789062 L 321 43.328125 C 320.792969 43.5 320.605469 43.691406 320.441406 43.90625 C 320.273438 44.117188 320.132812 44.347656 320.019531 44.589844 C 319.902344 44.835938 319.816406 45.089844 319.757812 45.351562 C 319.699219 45.613281 319.667969 45.878906 319.667969 46.148438 C 319.667969 46.417969 319.699219 46.6875 319.757812 46.949219 C 319.816406 47.210938 319.902344 47.464844 320.019531 47.710938 C 320.132812 47.953125 320.273438 48.179688 320.441406 48.394531 C 320.605469 48.605469 320.792969 48.800781 321 48.972656 L 327.25 54.402344 L 321 59.835938 C 320.792969 60.007812 320.605469 60.199219 320.441406 60.414062 C 320.273438 60.625 320.132812 60.855469 320.019531 61.097656 C 319.902344 61.339844 319.816406 61.59375 319.757812 61.859375 C 319.699219 62.121094 319.667969 62.386719 319.667969 62.65625 C 319.667969 62.925781 319.699219 63.191406 319.757812 63.457031 C 319.816406 63.71875 319.902344 63.972656 320.019531 64.214844 C 320.132812 64.460938 320.273438 64.6875 320.441406 64.902344 C 320.605469 65.113281 320.792969 65.304688 321 65.476562 Z M 329.46875 61.207031 L 336.097656 55.578125 C 336.234375 55.472656 336.339844 55.339844 336.414062 55.1875 C 336.488281 55.03125 336.527344 54.871094 336.527344 54.699219 C 336.527344 54.527344 336.488281 54.363281 336.414062 54.207031 C 336.339844 54.054688 336.234375 53.921875 336.097656 53.816406 L 329.210938 47.769531 C 329.070312 47.660156 328.960938 47.527344 328.882812 47.371094 C 328.804688 47.210938 328.765625 47.046875 328.765625 46.867188 C 328.765625 46.691406 328.804688 46.523438 328.882812 46.367188 C 328.960938 46.207031 329.070312 46.074219 329.210938 45.96875 C 330.515625 44.9375 332.789062 43.226562 333.980469 42.273438 C 334.242188 42.074219 334.535156 41.96875 334.863281 41.949219 C 335.1875 41.933594 335.492188 42.011719 335.769531 42.179688 L 353.914062 53.320312 C 354.324219 53.539062 354.53125 53.878906 354.53125 54.34375 C 354.53125 54.808594 354.324219 55.152344 353.914062 55.371094 L 334.804688 66.574219 C 334.503906 66.753906 334.183594 66.824219 333.835938 66.785156 C 333.492188 66.75 333.191406 66.613281 332.933594 66.378906 L 329.339844 62.929688 C 329.234375 62.816406 329.160156 62.683594 329.109375 62.539062 C 329.058594 62.390625 329.039062 62.242188 329.050781 62.085938 C 329.0625 61.933594 329.105469 61.785156 329.179688 61.648438 C 329.253906 61.511719 329.347656 61.394531 329.46875 61.296875 Z M 329.46875 61.207031 "/>
</g>
</g>
</svg>
